<mxfile host="app.diagrams.net" modified="2021-12-30T10:19:49.478Z" agent="5.0 (Windows NT 10.0; Win64; x64) AppleWebKit/537.36 (KHTML, like Gecko) Chrome/96.0.4664.110 Safari/537.36" etag="10g-iEk_qv8XydcEtKAl" version="16.1.0" type="github">
  <diagram id="B6fYnNA_Ycc2_gfgWTXK" name="Page-1">
    <mxGraphModel dx="1221" dy="648" grid="1" gridSize="10" guides="1" tooltips="1" connect="1" arrows="1" fold="1" page="1" pageScale="1" pageWidth="850" pageHeight="1100" math="0" shadow="0">
      <root>
        <mxCell id="0" />
        <mxCell id="1" parent="0" />
        <mxCell id="eLZTv4X-DEWrMysk3diu-4" value="" style="edgeStyle=orthogonalEdgeStyle;rounded=0;orthogonalLoop=1;jettySize=auto;html=1;" edge="1" parent="1" source="eLZTv4X-DEWrMysk3diu-1" target="eLZTv4X-DEWrMysk3diu-3">
          <mxGeometry relative="1" as="geometry" />
        </mxCell>
        <mxCell id="eLZTv4X-DEWrMysk3diu-12" value="" style="edgeStyle=orthogonalEdgeStyle;rounded=0;orthogonalLoop=1;jettySize=auto;html=1;" edge="1" parent="1" source="eLZTv4X-DEWrMysk3diu-1" target="eLZTv4X-DEWrMysk3diu-11">
          <mxGeometry relative="1" as="geometry">
            <Array as="points">
              <mxPoint x="160" y="270" />
              <mxPoint x="160" y="375" />
            </Array>
          </mxGeometry>
        </mxCell>
        <mxCell id="eLZTv4X-DEWrMysk3diu-14" value="" style="edgeStyle=orthogonalEdgeStyle;rounded=0;orthogonalLoop=1;jettySize=auto;html=1;fontSize=12;" edge="1" parent="1" source="eLZTv4X-DEWrMysk3diu-1" target="eLZTv4X-DEWrMysk3diu-13">
          <mxGeometry relative="1" as="geometry">
            <Array as="points">
              <mxPoint x="160" y="270" />
              <mxPoint x="160" y="480" />
            </Array>
          </mxGeometry>
        </mxCell>
        <mxCell id="eLZTv4X-DEWrMysk3diu-17" value="" style="edgeStyle=orthogonalEdgeStyle;rounded=0;orthogonalLoop=1;jettySize=auto;html=1;fontSize=12;" edge="1" parent="1" source="eLZTv4X-DEWrMysk3diu-1" target="eLZTv4X-DEWrMysk3diu-16">
          <mxGeometry relative="1" as="geometry">
            <Array as="points">
              <mxPoint x="160" y="270" />
              <mxPoint x="160" y="570" />
            </Array>
          </mxGeometry>
        </mxCell>
        <mxCell id="eLZTv4X-DEWrMysk3diu-19" value="" style="edgeStyle=orthogonalEdgeStyle;rounded=0;orthogonalLoop=1;jettySize=auto;html=1;fontSize=12;" edge="1" parent="1" source="eLZTv4X-DEWrMysk3diu-1" target="eLZTv4X-DEWrMysk3diu-18">
          <mxGeometry relative="1" as="geometry">
            <Array as="points">
              <mxPoint x="160" y="270" />
              <mxPoint x="160" y="660" />
            </Array>
          </mxGeometry>
        </mxCell>
        <mxCell id="eLZTv4X-DEWrMysk3diu-1" value="quản trị" style="shape=umlActor;verticalLabelPosition=bottom;verticalAlign=top;html=1;outlineConnect=0;" vertex="1" parent="1">
          <mxGeometry x="60" y="240" width="30" height="60" as="geometry" />
        </mxCell>
        <mxCell id="eLZTv4X-DEWrMysk3diu-6" value="" style="edgeStyle=orthogonalEdgeStyle;rounded=0;orthogonalLoop=1;jettySize=auto;html=1;" edge="1" parent="1" source="eLZTv4X-DEWrMysk3diu-3" target="eLZTv4X-DEWrMysk3diu-5">
          <mxGeometry relative="1" as="geometry" />
        </mxCell>
        <mxCell id="eLZTv4X-DEWrMysk3diu-8" value="" style="edgeStyle=orthogonalEdgeStyle;rounded=0;orthogonalLoop=1;jettySize=auto;html=1;" edge="1" parent="1" source="eLZTv4X-DEWrMysk3diu-3" target="eLZTv4X-DEWrMysk3diu-7">
          <mxGeometry relative="1" as="geometry" />
        </mxCell>
        <mxCell id="eLZTv4X-DEWrMysk3diu-10" value="" style="edgeStyle=orthogonalEdgeStyle;rounded=0;orthogonalLoop=1;jettySize=auto;html=1;" edge="1" parent="1" source="eLZTv4X-DEWrMysk3diu-3" target="eLZTv4X-DEWrMysk3diu-9">
          <mxGeometry relative="1" as="geometry">
            <Array as="points">
              <mxPoint x="400" y="240" />
              <mxPoint x="400" y="320" />
            </Array>
          </mxGeometry>
        </mxCell>
        <mxCell id="eLZTv4X-DEWrMysk3diu-3" value="&lt;p class=&quot;MsoNormal&quot; style=&quot;text-align: left ; margin-left: 0.25in&quot;&gt;&lt;span style=&quot;line-height: 107% ; background: white&quot;&gt;&lt;font style=&quot;font-size: 12px&quot;&gt;chuẩn bị nội dung và cập nhật&lt;/font&gt;&lt;/span&gt;&lt;span style=&quot;font-size: 12pt ; line-height: 107%&quot;&gt;&lt;/span&gt;&lt;/p&gt;" style="whiteSpace=wrap;html=1;verticalAlign=top;" vertex="1" parent="1">
          <mxGeometry x="230" y="195" width="130" height="90" as="geometry" />
        </mxCell>
        <mxCell id="eLZTv4X-DEWrMysk3diu-5" value="Thêm sản phẩm" style="whiteSpace=wrap;html=1;verticalAlign=top;" vertex="1" parent="1">
          <mxGeometry x="440" y="140" width="120" height="60" as="geometry" />
        </mxCell>
        <mxCell id="eLZTv4X-DEWrMysk3diu-7" value="Sửa sản phẩm" style="whiteSpace=wrap;html=1;verticalAlign=top;" vertex="1" parent="1">
          <mxGeometry x="440" y="210" width="120" height="60" as="geometry" />
        </mxCell>
        <mxCell id="eLZTv4X-DEWrMysk3diu-9" value="Xóa sản phẩm" style="whiteSpace=wrap;html=1;verticalAlign=top;" vertex="1" parent="1">
          <mxGeometry x="440" y="290" width="120" height="60" as="geometry" />
        </mxCell>
        <mxCell id="eLZTv4X-DEWrMysk3diu-11" value="&lt;p class=&quot;MsoNormal&quot; style=&quot;text-align: left ; margin-left: 0.25in&quot;&gt;&lt;span style=&quot;line-height: 107% ; background: white&quot;&gt;xử lý các yêu cầu khách hàng&lt;br/&gt;từ trang web&lt;/span&gt;&lt;span style=&quot;font-size: 12pt ; line-height: 107%&quot;&gt;&lt;/span&gt;&lt;/p&gt;" style="whiteSpace=wrap;html=1;verticalAlign=top;" vertex="1" parent="1">
          <mxGeometry x="230" y="340" width="127.5" height="70" as="geometry" />
        </mxCell>
        <mxCell id="eLZTv4X-DEWrMysk3diu-13" value="&lt;p class=&quot;MsoNormal&quot; style=&quot;text-align: left ; margin-left: 0.25in&quot;&gt;&lt;span style=&quot;line-height: 107% ; background: white&quot;&gt;&lt;font style=&quot;font-size: 12px&quot;&gt;nâng cấp cho trang web&lt;/font&gt;&lt;/span&gt;&lt;span style=&quot;font-size: 12pt ; line-height: 107%&quot;&gt;&lt;/span&gt;&lt;/p&gt;" style="whiteSpace=wrap;html=1;verticalAlign=top;" vertex="1" parent="1">
          <mxGeometry x="230" y="450" width="120" height="60" as="geometry" />
        </mxCell>
        <mxCell id="eLZTv4X-DEWrMysk3diu-16" value="&lt;p class=&quot;MsoNormal&quot; style=&quot;text-align: left ; margin-left: 0.25in&quot;&gt;&lt;span style=&quot;line-height: 107% ; background: white&quot;&gt;&lt;font style=&quot;font-size: 12px&quot;&gt;xử lý các lỗi website&lt;/font&gt;&lt;/span&gt;&lt;span style=&quot;font-size: 12pt ; line-height: 107%&quot;&gt;&lt;/span&gt;&lt;/p&gt;" style="whiteSpace=wrap;html=1;verticalAlign=top;" vertex="1" parent="1">
          <mxGeometry x="230" y="540" width="120" height="60" as="geometry" />
        </mxCell>
        <mxCell id="eLZTv4X-DEWrMysk3diu-18" value="&lt;p class=&quot;MsoNormal&quot; style=&quot;text-align: left ; margin-left: 0.25in&quot;&gt;&lt;span style=&quot;line-height: 107% ; background: white&quot;&gt;&lt;font style=&quot;font-size: 12px&quot;&gt;lập kế hoạch phát triển&lt;/font&gt;&lt;/span&gt;&lt;span style=&quot;font-size: 12pt ; line-height: 107%&quot;&gt;&lt;/span&gt;&lt;/p&gt;" style="whiteSpace=wrap;html=1;verticalAlign=top;" vertex="1" parent="1">
          <mxGeometry x="230" y="630" width="120" height="60" as="geometry" />
        </mxCell>
      </root>
    </mxGraphModel>
  </diagram>
</mxfile>
